<svg id="Layer_1" data-name="Layer 1" xmlns="http://www.w3.org/2000/svg" viewBox="0 0 690.31 166.29"><defs><style>.cls-1{fill:#ff6b00;}.cls-2{fill:#da3ab3;}.cls-3{fill:#da1800;}.cls-4,.cls-9{fill:#00b3e3;}.cls-5{fill:#ff4338;}.cls-6{fill:#002f32;}.cls-7{fill:#00299f;}.cls-8{fill:#da2d2f;}.cls-9{font-size:18.48px;font-family:GilbertBold, Gilbert;}.cls-10{fill:#ef8b01;}.cls-11{fill:#3b3b98;}.cls-12{fill:#ed2a26;}.cls-13{fill:#fff;}.cls-14{fill:#da1f27;}.cls-15{fill:#af1f24;}.cls-16{fill:#c72127;}</style></defs><path class="cls-1" d="M188.66,50h0V115.5A46.49,46.49,0,0,0,235.11,162h50.65V134.56H235.11a19.07,19.07,0,0,1-19.06-19.06V92.34A46.49,46.49,0,0,1,188.66,50" transform="translate(-10.85 -2.04)"/><path class="cls-2" d="M216.05,50h0V92.34a46.2,46.2,0,0,0,19.06,4.1h50.65V69.05H235.11A19.08,19.08,0,0,1,216.05,50" transform="translate(-10.85 -2.04)"/><path class="cls-3" d="M285.76,3.53H235.11a46.45,46.45,0,0,0-19.06,88.81V50a19.07,19.07,0,0,1,19.06-19.06h50.65V3.53" transform="translate(-10.85 -2.04)"/><polyline class="cls-4" points="316.09 0.48 291.13 0.48 291.13 140.84 316.09 140.84 316.09 0.48"/><path class="cls-1" d="M386.79,54.47c-25.06,0-45.38,19.77-45.4,44.15,0,24.76,20.55,44.15,46.79,44.15,13.54,0,24.4-4.2,36.29-14.05L408.3,110.24c-7.37,6.1-13.12,7.79-20.61,7.79a19.2,19.2,0,0,1-10.52-2.7l-.82.33-25.28,10.15A42.66,42.66,0,0,1,342,105.92l25.62-10.29v0a19.15,19.15,0,0,1,11.55-15.4,17.77,17.77,0,0,1,7.09-1.44,20.14,20.14,0,0,1,12.08,4l.39.33,25.08-10.07a44.29,44.29,0,0,1,4.42,7.51,45.41,45.41,0,0,0-41.45-26.1m41.47,26.14.05.1-.05-.1m.1.21,0,0,0,0m.1.21v0m.08.19v0m5,11.48-25.17,10.11L433.52,92.7" transform="translate(-10.85 -2.04)"/><path class="cls-2" d="M428.23,80.56l0,0,0,0m.06.14,0,.11,0-.11m.07.15.08.18-.08-.18m.1.21.06.15-.06-.15m.08.18.07.18,4.91,11.27-4.91-11.27-.07-.18m-29.81,1.89-15.42,6.19-14.79,5.94-.91.37c-1.24,10.32,4.27,16,8.78,19.18l.78.52,27.76-11.15,3.42-1.38s-3-13.76-9.62-19.68" transform="translate(-10.85 -2.04)"/><path class="cls-3" d="M423.81,73.06,398.73,83.13c6.65,5.92,9.61,19.62,9.63,19.68L433.52,92.7l-4.9-11.27-.08-.18,0,0-.06-.15,0,0-.07-.17,0,0-.05-.11-.05-.1,0,0a43.21,43.21,0,0,0-4.41-7.51M367.61,95.63,342,105.92a42.66,42.66,0,0,0,9.07,19.89l25.28-10.15.82-.33c-.26-.16-.52-.34-.77-.51-4.52-3.21-10-8.87-8.78-19.19" transform="translate(-10.85 -2.04)"/><path class="cls-5" d="M534.74,54.46H509.79V59.2a44.08,44.08,0,0,1,24.95,39.42V54.46m0,44.16A44.07,44.07,0,0,1,509.79,138v4.74h24.95V98.62" transform="translate(-10.85 -2.04)"/><path class="cls-4" d="M489.34,54.46c-18.78,0-35.62,11.24-42.37,28.27a43.32,43.32,0,0,0,11.89,48.62A46.4,46.4,0,0,0,509.79,138V98.62A19.89,19.89,0,0,1,497.17,117a20.87,20.87,0,0,1-22.29-4.31A19.47,19.47,0,0,1,470.45,91a20.44,20.44,0,0,1,18.89-12.28c11.29,0,20.44,8.91,20.45,19.89V59.2a46.18,46.18,0,0,0-20.45-4.74" transform="translate(-10.85 -2.04)"/><path class="cls-6" d="M509.79,59.2V138a44.07,44.07,0,0,0,24.95-39.41h0A44.08,44.08,0,0,0,509.79,59.2" transform="translate(-10.85 -2.04)"/><path class="cls-5" d="M576.17,54.4H551.22V87.27a33.07,33.07,0,0,1,24.95-31.74V54.4" transform="translate(-10.85 -2.04)"/><path class="cls-4" d="M585,54.4a34.75,34.75,0,0,0-8.84,1.14V87.27a8.61,8.61,0,0,1,5.46-8,9,9,0,0,1,9.64,1.87L608.91,64A34.09,34.09,0,0,0,585,54.4" transform="translate(-10.85 -2.04)"/><path class="cls-7" d="M576.17,55.53a33.07,33.07,0,0,0-24.95,31.74v55.5h24.95V55.53" transform="translate(-10.85 -2.04)"/><path class="cls-1" d="M646.32,54.4h-25V93.2a38.86,38.86,0,0,1,25-36V54.41" transform="translate(-10.85 -2.04)"/><path class="cls-2" d="M661.26,54.4a40.79,40.79,0,0,0-14.94,2.83v36a14.95,14.95,0,0,1,29.88,0v49.58h24.95V93.2c0-21.41-17.87-38.77-39.89-38.79" transform="translate(-10.85 -2.04)"/><path class="cls-8" d="M646.32,57.23a38.85,38.85,0,0,0-25,36v49.57h25V57.23" transform="translate(-10.85 -2.04)"/><text class="cls-9" transform="translate(290.23 160.39)">with<tspan class="cls-10" x="30.81" y="0" xml:space="preserve"> Tuner</tspan><tspan class="cls-7" x="75.95" y="0"> </tspan><tspan class="cls-11" x="81.25" y="0">Page</tspan></text><path class="cls-12" d="M185.32,25.86a12.81,12.81,0,1,1-12.81-12.81A12.82,12.82,0,0,1,185.32,25.86Z" transform="translate(-10.85 -2.04)"/><path class="cls-12" d="M154.58,8.59A6.36,6.36,0,0,1,148,14.76,6.23,6.23,0,0,1,142,8.21a6.36,6.36,0,0,1,6.55-6.16A6.21,6.21,0,0,1,154.58,8.59Z" transform="translate(-10.85 -2.04)"/><path class="cls-12" d="M25.74,141.79a7.45,7.45,0,1,1-7.21-7.68A7.41,7.41,0,0,1,25.74,141.79Z" transform="translate(-10.85 -2.04)"/><path class="cls-13" d="M86.66,51.87l39,22.48a9.83,9.83,0,0,1,0,17.18l-39,22.67a10,10,0,0,1-14.9-8.54V60.6A10,10,0,0,1,86.66,51.87Z" transform="translate(-10.85 -2.04)"/><path class="cls-14" d="M128.59,65.44v.76a76,76,0,0,1,37.19,48,74.9,74.9,0,0,0,6.45-37.66A75.83,75.83,0,0,0,92.82,7.37,75.52,75.52,0,0,1,128.59,65.44Z" transform="translate(-10.85 -2.04)"/><path class="cls-12" d="M21.29,89.53a82.68,82.68,0,0,0,2,12A75.65,75.65,0,0,1,128.59,66.2v-.76A75.76,75.76,0,0,0,92.82,7.37a24.69,24.69,0,0,0-2.56.19A75.68,75.68,0,0,0,21.29,89.53Z" transform="translate(-10.85 -2.04)"/><path class="cls-15" d="M128.69,66.2a75.74,75.74,0,0,1-69.07,81.21c-.86.09-1.71.09-2.56.19a75.66,75.66,0,0,0,108.72-33.3A75.52,75.52,0,0,0,128.69,66.2Z" transform="translate(-10.85 -2.04)"/><path class="cls-16" d="M128.69,66.2A75.65,75.65,0,0,0,23.38,101.49,75.66,75.66,0,0,0,57.15,147.6a24.29,24.29,0,0,0,2.56-.19A75.79,75.79,0,0,0,128.69,66.2Z" transform="translate(-10.85 -2.04)"/><path class="cls-13" d="M104.75,66.71c10.44,0,18.34,7.7,18.39,18a17.94,17.94,0,0,1-18.23,18.15c-9.67,0-17.88-8.2-17.86-17.72C87.08,74.82,94.85,66.74,104.75,66.71Z" transform="translate(-10.85 -2.04)"/><path class="cls-13" d="M111.53,60.39l-4.61-1.51c1.71-5.23,3.29-10.31,5-15.34a2.73,2.73,0,0,0-.85-3.51A10.39,10.39,0,0,1,121,22.38a10.49,10.49,0,0,1,7.38,11.29,9.78,9.78,0,0,1-9,8.89c-2,.23-2.58,1.36-3.08,2.92C114.79,50.37,113.19,55.25,111.53,60.39Z" transform="translate(-10.85 -2.04)"/><path class="cls-13" d="M79.33,94.21,81.74,98c-4.38,2.69-8.57,5.32-12.82,7.83a2.82,2.82,0,0,0-1.66,3.24,10.35,10.35,0,0,1-18.45,7.65,10.32,10.32,0,0,1-.37-12.51,10.61,10.61,0,0,1,11.69-3.93c.28.08.66.06.83.24,3.09,3.16,5.69,1.13,8.43-.65,2.94-1.91,6-3.63,9-5.42A4.58,4.58,0,0,1,79.33,94.21Z" transform="translate(-10.85 -2.04)"/><path class="cls-13" d="M110.08,106.56l4.34-2.07c1.42,3,2.9,5.9,4.2,8.89a4,4,0,0,0,4.13,2.83,10,10,0,0,1,9.72,8.18,10.64,10.64,0,0,1-5.4,11.36,10.34,10.34,0,0,1-12.73-2.56,10,10,0,0,1-.42-12.7c1.46-1.88,1.37-3.28.32-5.2C112.75,112.56,111.55,109.68,110.08,106.56Z" transform="translate(-10.85 -2.04)"/><path class="cls-13" d="M81.62,68.53l-2.54,4c-1.8-1.07-3.57-2-5.23-3.13s-3.13-1.47-5.21-.17A10.37,10.37,0,0,1,54.18,65.5a10.49,10.49,0,0,1,3.82-14c5.07-2.92,11.43-1.43,14.19,3.64a11.4,11.4,0,0,1,1.36,6.11,3.27,3.27,0,0,0,2,3.66C77.48,66,79.37,67.17,81.62,68.53Z" transform="translate(-10.85 -2.04)"/></svg>