<?xml version="1.0" standalone="no"?>
<!DOCTYPE svg PUBLIC "-//W3C//DTD SVG 20010904//EN"
 "http://www.w3.org/TR/2001/REC-SVG-20010904/DTD/svg10.dtd">
<svg version="1.0" xmlns="http://www.w3.org/2000/svg"
 width="712.000000pt" height="169.000000pt" viewBox="0 0 712.000000 169.000000"
 preserveAspectRatio="xMidYMid meet">

<g transform="translate(0.000000,169.000000) scale(0.100000,-0.100000)"
fill="#000000" stroke="none">
<path d="M1400 1664 c-20 -23 -16 -75 5 -90 26 -20 69 -17 88 4 21 23 22 66 1
86 -20 20 -78 21 -94 0z"/>
<path d="M798 1590 c-179 -22 -368 -119 -486 -248 -53 -59 -127 -175 -155
-244 -51 -128 -70 -297 -47 -414 17 -87 19 -97 36 -148 108 -329 461 -561 808
-531 287 25 526 186 651 440 65 131 79 195 80 355 0 160 -14 222 -79 355 -148
300 -475 477 -808 435z m199 -556 c131 -75 251 -149 266 -164 37 -35 47 -96
22 -138 -19 -32 -52 -53 -356 -227 -212 -122 -235 -128 -297 -71 l-37 34 -3
309 c-2 295 -2 309 18 341 24 40 73 64 117 58 18 -3 139 -66 270 -142z"/>
<path d="M1641 1552 c-37 -20 -71 -73 -71 -110 0 -36 25 -87 55 -110 64 -51
177 -15 203 63 38 112 -84 214 -187 157z"/>
<path d="M2960 945 l0 -245 55 0 55 0 0 245 0 245 -55 0 -55 0 0 -245z"/>
<path d="M3180 1145 l0 -45 55 0 55 0 0 45 0 45 -55 0 -55 0 0 -45z"/>
<path d="M2076 1165 c-82 -29 -128 -83 -146 -171 -18 -84 5 -181 53 -232 58
-63 171 -87 269 -58 44 12 65 26 96 61 114 130 63 354 -91 400 -62 19 -129 19
-181 0z m138 -85 c44 -16 66 -65 66 -145 0 -104 -38 -155 -116 -155 -70 0
-114 60 -114 155 0 119 70 181 164 145z"/>
<path d="M4664 1166 c-103 -32 -158 -113 -158 -231 0 -52 5 -82 22 -117 52
-106 185 -153 320 -113 l52 16 0 44 c0 25 -1 45 -2 45 -2 0 -21 -7 -43 -15
-128 -46 -225 14 -225 140 0 126 97 186 225 140 22 -8 41 -15 43 -15 1 0 2 20
2 45 l0 44 -52 16 c-62 18 -128 18 -184 1z"/>
<path d="M2680 1063 c-8 -3 -27 -15 -42 -25 -28 -19 -28 -19 -28 1 0 19 -6 21
-55 21 l-55 0 0 -180 0 -180 55 0 55 0 0 115 c0 110 1 117 25 140 30 31 69 32
89 3 12 -17 16 -50 16 -140 l0 -118 56 0 56 0 -4 148 c-4 162 -10 181 -64 207
-32 15 -76 18 -104 8z"/>
<path d="M3580 1063 c-8 -3 -27 -15 -42 -25 -28 -19 -28 -19 -28 1 0 19 -6 21
-55 21 l-55 0 0 -180 0 -180 55 0 55 0 0 115 c0 110 1 117 25 140 30 31 69 32
89 3 12 -17 16 -50 16 -140 l0 -118 56 0 56 0 -4 148 c-4 162 -10 181 -64 207
-32 15 -76 18 -104 8z"/>
<path d="M3947 1055 c-78 -27 -117 -86 -117 -175 0 -135 88 -199 252 -186 105
9 108 10 108 61 l0 42 -52 -18 c-101 -35 -165 -21 -186 41 l-11 30 135 0 134
0 0 38 c0 43 -28 109 -56 134 -52 46 -136 59 -207 33z m123 -75 c11 -11 20
-29 20 -40 0 -18 -7 -20 -70 -20 -78 0 -89 13 -48 57 27 29 71 30 98 3z"/>
<path d="M5085 1052 c-74 -36 -105 -87 -105 -173 0 -89 45 -152 126 -179 47
-16 135 -7 177 17 114 67 114 259 -1 326 -49 29 -147 33 -197 9z m120 -68 c24
-10 45 -58 45 -104 0 -46 -21 -94 -45 -104 -63 -24 -105 17 -105 104 0 87 42
128 105 104z"/>
<path d="M6100 1063 c-8 -3 -27 -17 -42 -31 l-28 -26 0 27 c0 26 -2 27 -55 27
l-55 0 0 -180 0 -180 55 0 55 0 0 105 c0 57 5 115 11 129 15 32 60 50 104 43
l35 -6 0 50 c0 49 0 49 -32 48 -18 0 -40 -3 -48 -6z"/>
<path d="M6294 1059 c-60 -17 -91 -78 -73 -144 12 -43 40 -60 124 -77 78 -15
104 -39 71 -64 -25 -18 -89 -18 -149 0 l-47 14 0 -43 0 -42 46 -7 c71 -9 155
-6 193 8 38 13 69 49 72 81 7 84 -20 117 -107 134 -32 7 -69 14 -80 16 -28 6
-37 31 -18 50 19 19 76 19 137 1 l47 -14 0 43 c0 41 -1 43 -37 49 -52 8 -142
6 -179 -5z"/>
<path d="M6717 1055 c-78 -27 -117 -86 -117 -175 0 -135 88 -199 252 -186 105
9 108 10 108 61 l0 42 -52 -18 c-101 -35 -165 -21 -186 41 l-11 30 135 0 134
0 0 38 c0 43 -28 109 -56 134 -52 46 -136 59 -207 33z m123 -75 c11 -11 20
-29 20 -40 0 -18 -7 -20 -70 -20 -78 0 -89 13 -48 57 27 29 71 30 98 3z"/>
<path d="M3180 880 l0 -180 55 0 55 0 0 180 0 180 -55 0 -55 0 0 -180z"/>
<path d="M5450 938 c0 -141 9 -184 46 -219 35 -33 119 -34 163 -1 37 27 41 27
41 2 0 -18 7 -20 55 -20 l55 0 0 180 0 180 -54 0 -53 0 -5 -110 c-5 -126 -21
-163 -75 -168 -49 -5 -58 16 -62 155 l-3 123 -54 0 -54 0 0 -122z"/>
<path d="M27 273 c-8 -10 -19 -30 -22 -45 -6 -22 -1 -33 23 -58 36 -35 60 -38
96 -9 33 26 36 79 6 109 -25 25 -81 26 -103 3z"/>
</g>
</svg>
